<?xml version="1.0" encoding="utf-8"?>
<!-- Generator: Adobe Illustrator 23.0.1, SVG Export Plug-In . SVG Version: 6.00 Build 0)  -->
<svg version="1.1" id="Layer_1" xmlns="http://www.w3.org/2000/svg" xmlns:xlink="http://www.w3.org/1999/xlink" x="0px" y="0px"
	 viewBox="0 0 512 512" style="enable-background:new 0 0 512 512;" xml:space="preserve">
<style type="text/css">
	.st0{fill-rule:evenodd;clip-rule:evenodd;fill:#1B1B1B;}
</style>
<path class="st0" d="M404.6,256l49.4,49.5c2.6,2.6,2.6,6.9,0,9.6c-1.3,1.3-3.1,2-4.8,2c-1.7,0-3.5-0.7-4.8-2L395,265.6l-49.4,49.5
	c-1.3,1.3-3.1,2-4.8,2c-1.7,0-3.5-0.7-4.8-2c-2.6-2.6-2.6-6.9,0-9.6l49.4-49.5L336,206.5c-2.6-2.6-2.6-6.9,0-9.6
	c2.6-2.6,6.9-2.6,9.6,0l49.4,49.5l49.4-49.5c2.6-2.6,6.9-2.6,9.6,0c2.6,2.7,2.6,6.9,0,9.6L404.6,256z M282.6,431.7
	c-0.9,0.4-1.9,0.6-2.9,0.6c-1.6,0-3.1-0.5-4.3-1.6L155.2,330.6h-66c-18.3,0-33.2-15.2-33.2-33.9v-81.4c0-18.7,14.9-33.9,33.2-33.9
	h66L275.4,81.2c2-1.7,4.8-2,7.2-0.9c2.4,1.1,3.9,3.5,3.9,6.1v339.1C286.5,428.2,285,430.6,282.6,431.7z M273.3,99.6L162,193.4
	c-1.7,1.4-3.9,1.7-5.9,1.3H90c-10.9,0-20.4,9.4-20.4,20.7v81.4c0,11.2,8.8,20.3,19.7,20.3h68.5c0.3,0,0.6,0.1,0.9,0.2
	c0.5,0.1,0.9,0.1,1.4,0.3c0.5,0.2,0.8,0.4,1.2,0.7c0.3,0.2,0.6,0.2,0.8,0.4L273.3,412V99.6z"/>
</svg>
