<?xml version="1.0" encoding="utf-8"?>
<!-- Generator: Adobe Illustrator 23.0.1, SVG Export Plug-In . SVG Version: 6.00 Build 0)  -->
<svg version="1.1" id="Layer_1" xmlns="http://www.w3.org/2000/svg" xmlns:xlink="http://www.w3.org/1999/xlink" x="0px" y="0px"
	 viewBox="0 0 512 512" style="enable-background:new 0 0 512 512;" xml:space="preserve">
<style type="text/css">
	.st0{fill-rule:evenodd;clip-rule:evenodd;fill:#1B1B1B;}
</style>
<path class="st0" d="M371.9,388.7c-0.8,0.3-1.5,0.4-2.3,0.4c-2.7,0-5.3-1.7-6.3-4.4c-1.3-3.5,0.5-7.3,4-8.5
	c45.1-16.5,75.3-64.8,75.3-120.2c0-54.7-31.1-104.2-75.6-120.3c-3.5-1.3-5.2-5.1-4-8.5c1.3-3.5,5.1-5.2,8.5-4
	C422.1,141.5,456,194.9,456,256C456,316.9,422.2,370.3,371.9,388.7z M389.3,256c0,33-26.9,59.9-60,59.9c-3.7,0-6.7-3-6.7-6.7
	c0-3.7,3-6.7,6.7-6.7c25.7,0,46.7-20.9,46.7-46.6c0-25.7-20.9-46.6-46.7-46.6c-3.7,0-6.7-3-6.7-6.7c0-3.7,3-6.7,6.7-6.7
	C362.4,196.1,389.3,223,389.3,256z M276,429.1c-1.5,0-3-0.5-4.3-1.5l-118.1-98.3H88.7c-18,0-32.7-14.9-32.7-33.3V216
	c0-18.4,14.7-33.3,32.7-33.3h64.9l118.1-98.3c2-1.6,4.8-2,7.1-0.9c2.3,1.1,3.8,3.4,3.8,6v332.9c0,2.6-1.5,4.9-3.8,6
	C277.9,428.9,277,429.1,276,429.1z M269.3,103.8l-109.1,90.8c-0.2,0.2-0.5,0.3-0.8,0.4c-0.4,0.2-0.8,0.5-1.2,0.7
	c-0.4,0.2-0.9,0.2-1.3,0.3c-0.3,0-0.6,0.2-0.9,0.2H88.7c-10.7,0-19.3,9-19.3,20v79.9c0,11,8.7,20,19.3,20H156c0.3,0,0.6,0.1,0.9,0.2
	c0.5,0.1,0.9,0.1,1.3,0.3c0.4,0.2,0.8,0.4,1.2,0.7c0.3,0.2,0.6,0.2,0.8,0.4l109.1,90.8V103.8z"/>
</svg>
